<svg xmlns="http://www.w3.org/2000/svg" width="305" height="29.151" viewBox="0 0 305 29.151">
  <g id="Symbols" transform="translate(0 0)">
    <g id="LogoHDBR_V1" transform="translate(0 0)">
      <path id="Fill-1" d="M37.7,25.488l.478-6.123q.394-5.014.559-9.3T38.9,4.084l-.02-1.876q2.4.034,3.4.035.75,0,3.068-.035l-.514,7.7-.058,1.777H58.584l.258-4.62q.087-2.379.085-3.131V2.208l3.4.035q.449,0,3.058-.035l-.666,9.308-.3,6.884-.082,4.037q-.04,2.49-.039,3.051l-3.176-.035q-.59,0-3.378.035.513-4.818.652-10.131H44.536l-.294,6.266-.083,3.865-3.345-.035q-.55,0-3.119.035" transform="translate(12.416 0.727)" fill="#ff5800" fill-rule="evenodd"/>
      <path id="Fill-3" d="M70.769,9.9a6.646,6.646,0,0,0-3.136.725,4.564,4.564,0,0,0-2.056,2.158,7.217,7.217,0,0,0-.677,3.124,6.054,6.054,0,0,0,.555,2.645,4.272,4.272,0,0,0,1.814,1.876,5.945,5.945,0,0,0,2.994.717,6.316,6.316,0,0,0,3.113-.741,4.708,4.708,0,0,0,2.017-2.186,7.4,7.4,0,0,0,.676-3.182,6.2,6.2,0,0,0-.523-2.577A4.043,4.043,0,0,0,73.782,10.6a6.057,6.057,0,0,0-3.014-.7m0-3.531a16.858,16.858,0,0,1,4.481.589A10.365,10.365,0,0,1,78.886,8.7a7.34,7.34,0,0,1,2.247,2.815,8.423,8.423,0,0,1,.751,3.506,9.238,9.238,0,0,1-.794,3.754,8.826,8.826,0,0,1-2.3,3.131,9.715,9.715,0,0,1-3.748,1.978,16.927,16.927,0,0,1-4.784.657,16.721,16.721,0,0,1-4.48-.589,10.23,10.23,0,0,1-3.627-1.765,7.708,7.708,0,0,1-2.286-2.867,8.3,8.3,0,0,1-.782-3.53A9.207,9.207,0,0,1,59.8,12.2a8.261,8.261,0,0,1,2.224-3.036A10.5,10.5,0,0,1,65.894,7.1a16.306,16.306,0,0,1,4.876-.734" transform="translate(19.463 2.097)" fill="#ff5800" fill-rule="evenodd"/>
      <path id="Fill-5" d="M77.328,23.794l-.458-3.718a25.752,25.752,0,0,0,3.374.944,13.561,13.561,0,0,0,2.539.264,7,7,0,0,0,1.951-.232,2.373,2.373,0,0,0,1.179-.685,1.463,1.463,0,0,0,.386-.954A1.6,1.6,0,0,0,86.25,19a1.44,1.44,0,0,0-.184-.394,2.519,2.519,0,0,0-.3-.387,4.143,4.143,0,0,0-.478-.412q-.3-.231-.873-.59l-1.1-.734c-1.056-.694-1.864-1.239-2.417-1.638a8.865,8.865,0,0,1-1.4-1.219,4.62,4.62,0,0,1-.863-1.314,3.525,3.525,0,0,1-.3-1.408,3.741,3.741,0,0,1,.9-2.371,5.177,5.177,0,0,1,2.631-1.646,14.125,14.125,0,0,1,4.062-.52,42.777,42.777,0,0,1,6.134.511l.274,3.577a14.057,14.057,0,0,0-4.5-.79,9.425,9.425,0,0,0-2.049.2,2.464,2.464,0,0,0-1.261.6,1.266,1.266,0,0,0-.384.894,1.4,1.4,0,0,0,.122.57,1.955,1.955,0,0,0,.424.588,4.664,4.664,0,0,0,.7.579q.393.274,1.644,1.075t2.191,1.449a9.266,9.266,0,0,1,1.544,1.306,4.953,4.953,0,0,1,.928,1.408,3.8,3.8,0,0,1,.324,1.518,3.581,3.581,0,0,1-.935,2.372,6.114,6.114,0,0,1-2.825,1.7,13.608,13.608,0,0,1-4.226.614q-1.22,0-2.967-.164a34.143,34.143,0,0,1-3.74-.579" transform="translate(25.32 2.097)" fill="#ff5800" fill-rule="evenodd"/>
      <path id="Fill-7" d="M103.428,21.461q-.246.94-.777,3.486-1.706.335-2.681.424t-1.828.087a13.583,13.583,0,0,1-2.692-.239,4.583,4.583,0,0,1-1.961-.841,3.025,3.025,0,0,1-1.046-1.415,5.167,5.167,0,0,1-.274-1.676c0-.147.006-.346.02-.6s.068-1.055.162-2.417l.467-7.083H89.88q.1-1.024.183-3.3h3.088q.123-.986.246-3.346l2.4-.4q.753-.122,2.912-.574-.141,2.307-.16,4.322H103.7q-.14,2.307-.141,3.3H98.395q-.428,6.925-.428,8.013a3.921,3.921,0,0,0,.273,1.634,1.633,1.633,0,0,0,.88.833,3.278,3.278,0,0,0,1.295.255,8.179,8.179,0,0,0,1.062-.071q.556-.073,1.952-.394" transform="translate(29.605 1.176)" fill="#ff5800" fill-rule="evenodd"/>
      <path id="Fill-9" d="M107.746,21.835q1.665.068,3.289.068,1.849,0,3.42-.154a14.852,14.852,0,0,0,2.711-.484A7.473,7.473,0,0,0,119.45,20.1a7.563,7.563,0,0,0,1.877-1.933,8.674,8.674,0,0,0,1.117-2.444,9.868,9.868,0,0,0,.386-2.742,7.746,7.746,0,0,0-1.034-4.2,5.918,5.918,0,0,0-2.728-2.367,14.1,14.1,0,0,0-5.22-.723q-2.291,0-5.251.067ZM101.5,25.506l.565-5.936.417-7.419.274-7.385q.02-.476.02-2.541,2.255.036,4.245.035,1.482,0,3.91-.051t4.193-.052a38.42,38.42,0,0,1,4.439.239,12.8,12.8,0,0,1,3.564.9,9.784,9.784,0,0,1,2.64,1.645,9.129,9.129,0,0,1,1.828,2.191,10.161,10.161,0,0,1,1.086,2.678,12.175,12.175,0,0,1,.378,3.01,13.3,13.3,0,0,1-1.212,5.586,10.911,10.911,0,0,1-3.608,4.383,12.563,12.563,0,0,1-5.319,2.226,39.942,39.942,0,0,1-6.62.494l-6.913-.034q-.652,0-3.886.034Z" transform="translate(33.432 0.71)" fill="#ff5800" fill-rule="evenodd"/>
      <path id="Fill-11" d="M126.229,6.58l-2.143.034c.053-1.176.081-3.282.081-3.908V2.157q1.85.034,3.011.034,1.587,0,2.949-.034a9.25,9.25,0,0,0-.081.976l-.1,3.481Q128.4,6.579,127.1,6.58Zm-3.236,18.925q.307-2.556.429-4.279.205-2.725.358-6.288t.214-6.766q1.992.034,2.988.034.915,0,2.967-.034-.289,2.966-.467,5.658T129.221,20q-.082,3.477-.084,5.5-1.843-.033-2.961-.034-1.053,0-3.184.034Z" transform="translate(40.512 0.71)" fill="#ff5800" fill-rule="evenodd"/>
      <path id="Fill-13" d="M128.968,24.118q.283-2.9.6-8.657t.315-8.675q1.719.034,2.793.034,1.232,0,2.7-.034l-.183,2.737a12.937,12.937,0,0,1,1.194-1.305,5.9,5.9,0,0,1,1.4-.929,8.51,8.51,0,0,1,2.011-.673,11.3,11.3,0,0,1,2.378-.247,10.515,10.515,0,0,1,1.775.145,8.355,8.355,0,0,1,1.561.408,5.664,5.664,0,0,1,1.2.605,4.075,4.075,0,0,1,.847.759,6.608,6.608,0,0,1,.758,1.236,11.4,11.4,0,0,1,.822-1,6.014,6.014,0,0,1,1.005-.826,6.76,6.76,0,0,1,1.4-.717,9.472,9.472,0,0,1,1.738-.452,12.125,12.125,0,0,1,2-.161,11.179,11.179,0,0,1,3.33.486,5.148,5.148,0,0,1,2.459,1.534,3.865,3.865,0,0,1,.895,2.6q0,.819-.136,2.4t-.328,5.175q-.193,3.59-.213,5.551-1.5-.033-2.645-.035-1.354,0-3.179.035.187-2.2.354-4.6l.25-3.9q.1-1.484.1-2.507a3.143,3.143,0,0,0-.457-1.854,2.533,2.533,0,0,0-1.161-.9,4.435,4.435,0,0,0-1.578-.267,4.5,4.5,0,0,0-1.659.292,4,4,0,0,0-1.385.947,4.54,4.54,0,0,0-.986,1.523,9.2,9.2,0,0,0-.5,2.43q-.156,1.559-.25,4.1l-.134,4.741q-1.7-.033-2.821-.035c-.748,0-1.752.013-3,.035q.148-1.314.425-5.378t.278-5.48a4.908,4.908,0,0,0-.144-1.272,2.393,2.393,0,0,0-.584-.99,2.707,2.707,0,0,0-1.034-.691,3.891,3.891,0,0,0-1.368-.222,4.167,4.167,0,0,0-2.517.787,4.539,4.539,0,0,0-1.586,2.106A20.21,20.21,0,0,0,135,18.091q-.213,3.794-.211,6.027-1.872-.033-2.83-.035-1.077,0-2.991.035" transform="translate(42.48 2.097)" fill="#ff5800" fill-rule="evenodd"/>
      <path id="Fill-15" d="M161,13.43l9.475.018a8.937,8.937,0,0,0-.061-1.222,4,4,0,0,0-.273-.9,2.965,2.965,0,0,0-.578-.895,3.265,3.265,0,0,0-.849-.646,4.352,4.352,0,0,0-1.125-.4,6.47,6.47,0,0,0-1.367-.138,6.119,6.119,0,0,0-1.65.224,5.364,5.364,0,0,0-1.468.655,4.345,4.345,0,0,0-1.083.963,4.48,4.48,0,0,0-.617,1.025,9.2,9.2,0,0,0-.4,1.316m13.137,6.831q-.257,1.009-.733,3.625-2.2.383-3.709.516t-3.034.134a23.393,23.393,0,0,1-4.776-.442,9.283,9.283,0,0,1-3.694-1.628,7.181,7.181,0,0,1-2.344-2.907,8.907,8.907,0,0,1-.754-3.613,9.926,9.926,0,0,1,.873-4.066,8.394,8.394,0,0,1,2.45-3.221A9.518,9.518,0,0,1,162,6.887a16.751,16.751,0,0,1,4.206-.52,17.312,17.312,0,0,1,3.942.436,7.963,7.963,0,0,1,3.139,1.425,6.745,6.745,0,0,1,1.952,2.383,6.962,6.962,0,0,1,.681,3.1,7.13,7.13,0,0,1-.2,1.656l-14.9.017c-.027.419-.039.754-.039,1a4.642,4.642,0,0,0,.468,2.089,4.392,4.392,0,0,0,1.363,1.612,6.044,6.044,0,0,0,2.14.977,9.909,9.909,0,0,0,2.442.314,20,20,0,0,0,3.046-.253,37.37,37.37,0,0,0,3.9-.863" transform="translate(51.085 2.097)" fill="#ff5800" fill-rule="evenodd"/>
      <path id="Fill-17" d="M32.8,5.5,29.59,4.625a.361.361,0,0,0-.51.369V21.1a.362.362,0,0,0,.51.369L32.8,20.59a.824.824,0,0,0,.509-.728V6.229A.824.824,0,0,0,32.8,5.5" transform="translate(9.578 1.514)" fill="#ff5800" fill-rule="evenodd"/>
      <path id="Fill-19" d="M3.725,4.625.509,5.5A.825.825,0,0,0,0,6.228V19.862a.826.826,0,0,0,.509.729l3.215.875a.361.361,0,0,0,.509-.369V4.995a.361.361,0,0,0-.509-.369" transform="translate(0 1.514)" fill="#ff5800" fill-rule="evenodd"/>
      <path id="Fill-21" d="M34.994,5.173l-14.5-5.1a1.8,1.8,0,0,0-1.022,0l-14.5,5.1a.827.827,0,0,0-.51.728V9.8a.448.448,0,0,0,.533.46L19.447,7.9a4.009,4.009,0,0,1,1.067,0l14.458,2.36A.447.447,0,0,0,35.5,9.8V5.9a.825.825,0,0,0-.509-.728" transform="translate(1.468 0)" fill="#ff5800" fill-rule="evenodd"/>
      <path id="Fill-23" d="M34.971,14.211l-14.458,2.36a3.913,3.913,0,0,1-1.067,0L4.988,14.211a.448.448,0,0,0-.532.461v3.9a.826.826,0,0,0,.509.728l14.5,5.1a1.8,1.8,0,0,0,1.021,0l14.5-5.1a.825.825,0,0,0,.51-.728v-3.9a.448.448,0,0,0-.533-.461" transform="translate(1.468 4.678)" fill="#ff5800" fill-rule="evenodd"/>
      <path id="Fill-26" d="M34.966,9.377,20.519,8.017C20.371,8,20.174,8,19.98,8s-.391.007-.539.02L4.993,9.377a.613.613,0,0,0-.538.6v3.9a.613.613,0,0,0,.538.6l14.448,1.359c.148.014.344.021.539.021s.391-.007.539-.021l14.447-1.359a.612.612,0,0,0,.538-.6v-3.9a.612.612,0,0,0-.538-.6" transform="translate(1.468 2.634)" fill="#ff5800" fill-rule="evenodd"/>
      <path id="Fill-28" d="M183.686,5.381q1.617,0,1.617-1.436,0-1.418-1.617-1.416h-1.9V5.381Zm-2.61,3.571a.437.437,0,0,1-.11-.311v-6.4a.393.393,0,0,1,.116-.3.422.422,0,0,1,.306-.112h2.38a2.508,2.508,0,0,1,1.731.551,1.977,1.977,0,0,1,.618,1.559,2,2,0,0,1-.623,1.568,2.482,2.482,0,0,1-1.726.56h-1.978V8.642a.437.437,0,0,1-.11.311.391.391,0,0,1-.3.117.4.4,0,0,1-.3-.117Z" transform="translate(59.607 0.604)" fill="#ff5800" fill-rule="evenodd"/>
      <path id="Fill-30" d="M188.511,3.777a.369.369,0,0,1-.09.26.473.473,0,0,1-.311.116l-.3.031a1.348,1.348,0,0,0-1,.485,1.582,1.582,0,0,0-.326.993V8.138a.4.4,0,0,1-.11.306.467.467,0,0,1-.588-.006.387.387,0,0,1-.116-.3v-4.3a.378.378,0,0,1,.121-.3.421.421,0,0,1,.291-.107.378.378,0,0,1,.271.107.387.387,0,0,1,.11.29V4.4a1.529,1.529,0,0,1,.6-.682,2,2,0,0,1,.888-.275l.141-.01c.281-.021.421.1.421.346" transform="translate(61.156 1.129)" fill="#ff5800" fill-rule="evenodd"/>
      <path id="Fill-32" d="M189.331,4.464a1.881,1.881,0,0,0-.457,1.151h2.841a1.777,1.777,0,0,0-.372-1.156,1.235,1.235,0,0,0-.984-.4,1.351,1.351,0,0,0-1.028.408m2.976,2.975a.351.351,0,0,1,.08.234q0,.255-.352.469a3.093,3.093,0,0,1-1.545.428,2.372,2.372,0,0,1-1.792-.683A2.608,2.608,0,0,1,188.04,6a2.978,2.978,0,0,1,.292-1.35,2.176,2.176,0,0,1,.818-.912,2.231,2.231,0,0,1,1.2-.326,1.925,1.925,0,0,1,1.516.632,2.481,2.481,0,0,1,.562,1.712.438.438,0,0,1-.081.3.327.327,0,0,1-.259.091h-3.233Q188.945,7.9,190.49,7.9a1.882,1.882,0,0,0,.671-.107,4.332,4.332,0,0,0,.6-.29.953.953,0,0,1,.352-.153.249.249,0,0,1,.191.092" transform="translate(61.937 1.124)" fill="#ff5800" fill-rule="evenodd"/>
      <path id="Fill-34" d="M199.3,5.381V8.142a.375.375,0,0,1-.4.407.415.415,0,0,1-.3-.107.383.383,0,0,1-.117-.3V5.4a1.6,1.6,0,0,0-.241-.987.9.9,0,0,0-.752-.306,1.194,1.194,0,0,0-.964.418,1.7,1.7,0,0,0-.351,1.131V8.142a.387.387,0,0,1-.116.3.419.419,0,0,1-.3.107.4.4,0,0,1-.29-.107.394.394,0,0,1-.11-.3V5.4a1.6,1.6,0,0,0-.242-.987.911.911,0,0,0-.762-.306,1.2,1.2,0,0,0-.96.418,1.69,1.69,0,0,0-.356,1.131V8.142a.375.375,0,0,1-.4.407.42.42,0,0,1-.3-.107.391.391,0,0,1-.114-.3v-4.3a.4.4,0,0,1,.114-.3.409.409,0,0,1,.3-.112.373.373,0,0,1,.391.4v.489a1.606,1.606,0,0,1,.612-.672,1.727,1.727,0,0,1,.9-.234,1.43,1.43,0,0,1,1.5.978,1.642,1.642,0,0,1,.643-.713,1.844,1.844,0,0,1,.984-.265q1.627,0,1.626,1.966" transform="translate(63.32 1.124)" fill="#ff5800" fill-rule="evenodd"/>
      <path id="Fill-36" d="M198.819,8.957a.388.388,0,0,1-.116-.3v-4.3a.388.388,0,0,1,.116-.3.419.419,0,0,1,.3-.107.375.375,0,0,1,.4.407v4.3a.4.4,0,0,1-.11.307.467.467,0,0,1-.588-.006m-.1-6.22a.5.5,0,0,1-.15-.378.483.483,0,0,1,.15-.366.609.609,0,0,1,.783,0,.478.478,0,0,1,.15.366.494.494,0,0,1-.15.378.609.609,0,0,1-.783,0" transform="translate(65.406 0.61)" fill="#ff5800" fill-rule="evenodd"/>
      <path id="Fill-38" d="M201.493,4.464a1.881,1.881,0,0,0-.457,1.151h2.842a1.792,1.792,0,0,0-.372-1.156,1.237,1.237,0,0,0-.984-.4,1.352,1.352,0,0,0-1.029.408m2.976,2.975a.344.344,0,0,1,.08.234q0,.255-.351.469a3.093,3.093,0,0,1-1.545.428,2.375,2.375,0,0,1-1.793-.683A2.608,2.608,0,0,1,200.2,6a3,3,0,0,1,.291-1.35,2.194,2.194,0,0,1,.818-.912,2.236,2.236,0,0,1,1.2-.326,1.924,1.924,0,0,1,1.514.632,2.475,2.475,0,0,1,.562,1.712.438.438,0,0,1-.08.3.33.33,0,0,1-.261.091h-3.232q.09,1.754,1.636,1.753a1.892,1.892,0,0,0,.671-.107,4.334,4.334,0,0,0,.6-.29.95.95,0,0,1,.351-.153.249.249,0,0,1,.191.092" transform="translate(65.944 1.124)" fill="#ff5800" fill-rule="evenodd"/>
      <path id="Fill-40" d="M207.242,3.777a.363.363,0,0,1-.09.26.47.47,0,0,1-.311.116l-.3.031a1.345,1.345,0,0,0-1,.485,1.575,1.575,0,0,0-.327.993V8.138a.393.393,0,0,1-.11.306.465.465,0,0,1-.586-.006.383.383,0,0,1-.116-.3v-4.3a.382.382,0,0,1,.12-.3.426.426,0,0,1,.291-.107.373.373,0,0,1,.271.107.382.382,0,0,1,.11.29V4.4a1.545,1.545,0,0,1,.6-.682,2,2,0,0,1,.889-.275l.14-.01c.282-.021.421.1.421.346" transform="translate(67.326 1.129)" fill="#ff5800" fill-rule="evenodd"/>
      <path id="Fill-42" d="M214.676,5.392a.336.336,0,0,1,.1.255V8.183a.7.7,0,0,1-.077.367.5.5,0,0,1-.275.194,4.4,4.4,0,0,1-.974.274,6.413,6.413,0,0,1-1.143.1,3.584,3.584,0,0,1-1.816-.438,2.889,2.889,0,0,1-1.17-1.263,4.43,4.43,0,0,1-.407-1.977,4.436,4.436,0,0,1,.4-1.956,2.9,2.9,0,0,1,1.155-1.269,3.41,3.41,0,0,1,1.765-.443,3.789,3.789,0,0,1,1.305.219,2.759,2.759,0,0,1,1.013.627.515.515,0,0,1,.172.357.407.407,0,0,1-.081.25.243.243,0,0,1-.2.107.493.493,0,0,1-.28-.122,3.7,3.7,0,0,0-.944-.565,2.765,2.765,0,0,0-.973-.158,2.258,2.258,0,0,0-1.833.763,3.343,3.343,0,0,0-.635,2.191,3.327,3.327,0,0,0,.647,2.216,2.358,2.358,0,0,0,1.9.758,4.814,4.814,0,0,0,1.7-.284V5.952h-1.465a.385.385,0,0,1-.271-.092.306.306,0,0,1-.1-.234.3.3,0,0,1,.1-.239.4.4,0,0,1,.271-.087h1.877a.342.342,0,0,1,.246.092" transform="translate(68.811 0.584)" fill="#ff5800" fill-rule="evenodd"/>
      <path id="Fill-44" d="M214.6,8.975a.388.388,0,0,1-.116-.3V2.2a.389.389,0,0,1,.116-.3.419.419,0,0,1,.3-.107.406.406,0,0,1,.286.107.388.388,0,0,1,.116.3v6.47a.388.388,0,0,1-.116.3.406.406,0,0,1-.286.107.419.419,0,0,1-.3-.107" transform="translate(70.646 0.592)" fill="#ff5800" fill-rule="evenodd"/>
      <path id="Fill-46" d="M219.441,7.4a2.22,2.22,0,0,0,.386-1.411,2.2,2.2,0,0,0-.391-1.4,1.48,1.48,0,0,0-2.208,0,2.211,2.211,0,0,0-.391,1.4,2.215,2.215,0,0,0,.387,1.406,1.507,1.507,0,0,0,2.217.005m-2.328.851a2.093,2.093,0,0,1-.814-.9,3.073,3.073,0,0,1-.287-1.36,3.073,3.073,0,0,1,.287-1.36,2.093,2.093,0,0,1,.814-.9,2.321,2.321,0,0,1,1.219-.316,2.354,2.354,0,0,1,1.224.316,2.086,2.086,0,0,1,.818.9,3.055,3.055,0,0,1,.286,1.36,3.055,3.055,0,0,1-.286,1.36,2.086,2.086,0,0,1-.818.9,2.354,2.354,0,0,1-1.224.316,2.321,2.321,0,0,1-1.219-.316" transform="translate(71.151 1.124)" fill="#ff5800" fill-rule="evenodd"/>
      <path id="Fill-48" d="M223.826,7.915a2.253,2.253,0,0,0,.391-1.41,2.152,2.152,0,0,0-.391-1.376,1.334,1.334,0,0,0-1.1-.489,1.319,1.319,0,0,0-1.1.489,2.21,2.21,0,0,0-.385,1.4,2.238,2.238,0,0,0,.385,1.4,1.465,1.465,0,0,0,2.2-.011m.19-3.653a2.081,2.081,0,0,1,.763.9,3.144,3.144,0,0,1,.271,1.345,3.206,3.206,0,0,1-.271,1.359,2.144,2.144,0,0,1-.763.913,2.005,2.005,0,0,1-1.134.325,1.909,1.909,0,0,1-1-.254,1.629,1.629,0,0,1-.647-.724v.551a.413.413,0,0,1-.106.295.386.386,0,0,1-.3.112.383.383,0,0,1-.412-.407V2.2a.392.392,0,0,1,.11-.285.4.4,0,0,1,.3-.112.369.369,0,0,1,.4.4V4.926a1.62,1.62,0,0,1,.647-.724,1.917,1.917,0,0,1,1-.255,2.053,2.053,0,0,1,1.134.316" transform="translate(72.603 0.592)" fill="#ff5800" fill-rule="evenodd"/>
      <path id="Fill-50" d="M227.514,7.505a1.494,1.494,0,0,0,.387-1.065v-.3h-.181a8.838,8.838,0,0,0-1.345.077,1.3,1.3,0,0,0-.657.255.671.671,0,0,0-.2.525.848.848,0,0,0,.287.657,1.024,1.024,0,0,0,.717.26,1.3,1.3,0,0,0,.989-.413m1.179-2.135V8.142a.413.413,0,0,1-.105.3.374.374,0,0,1-.286.111.388.388,0,0,1-.291-.111.4.4,0,0,1-.11-.3V7.653a1.456,1.456,0,0,1-.582.678,1.7,1.7,0,0,1-.9.239,1.954,1.954,0,0,1-.868-.194,1.558,1.558,0,0,1-.627-.54,1.356,1.356,0,0,1-.23-.764,1.252,1.252,0,0,1,.281-.871,1.7,1.7,0,0,1,.924-.448,8.978,8.978,0,0,1,1.787-.138h.221V5.279a1.355,1.355,0,0,0-.246-.9,1,1,0,0,0-.8-.285,2.91,2.91,0,0,0-1.385.377.912.912,0,0,1-.382.173.254.254,0,0,1-.2-.092.339.339,0,0,1-.081-.234.388.388,0,0,1,.086-.25.993.993,0,0,1,.275-.219,3.2,3.2,0,0,1,.8-.321,3.532,3.532,0,0,1,.889-.117q1.837,0,1.836,1.956" transform="translate(74.009 1.124)" fill="#ff5800" fill-rule="evenodd"/>
      <path id="Fill-52" d="M228.935,8.975a.384.384,0,0,1-.117-.3V2.2a.385.385,0,0,1,.117-.3.417.417,0,0,1,.3-.107.4.4,0,0,1,.286.107.388.388,0,0,1,.116.3v6.47a.388.388,0,0,1-.116.3.4.4,0,0,1-.286.107.417.417,0,0,1-.3-.107" transform="translate(75.368 0.592)" fill="#ff5800" fill-rule="evenodd"/>
      <path id="Fill-55" d="M183.295,15.97q2.75,0,2.75-2.884t-2.75-2.873h-1.506V15.97Zm-2.213.6a.392.392,0,0,1-.114-.3V9.907a.391.391,0,0,1,.114-.295.42.42,0,0,1,.307-.112h1.957a3.54,3.54,0,0,1,2.624.932,3.6,3.6,0,0,1,.929,2.654,3.6,3.6,0,0,1-.935,2.659,3.532,3.532,0,0,1-2.619.937h-1.957a.42.42,0,0,1-.307-.112Z" transform="translate(59.607 3.129)" fill="#ff5800" fill-rule="evenodd"/>
      <path id="Fill-57" d="M189.153,15.17a1.5,1.5,0,0,0,.386-1.065v-.3h-.181a8.813,8.813,0,0,0-1.344.077,1.3,1.3,0,0,0-.658.255.671.671,0,0,0-.2.525.848.848,0,0,0,.287.657,1.026,1.026,0,0,0,.717.26,1.3,1.3,0,0,0,.99-.413m1.178-2.135v2.771a.413.413,0,0,1-.105.3.372.372,0,0,1-.286.111.392.392,0,0,1-.291-.111.4.4,0,0,1-.11-.3v-.489a1.449,1.449,0,0,1-.582.678,1.7,1.7,0,0,1-.9.239,1.96,1.96,0,0,1-.869-.194,1.559,1.559,0,0,1-.627-.54,1.356,1.356,0,0,1-.23-.764,1.246,1.246,0,0,1,.282-.871,1.693,1.693,0,0,1,.923-.448,8.976,8.976,0,0,1,1.787-.138h.221v-.335a1.355,1.355,0,0,0-.246-.9,1,1,0,0,0-.8-.285,2.91,2.91,0,0,0-1.385.377.914.914,0,0,1-.382.173.258.258,0,0,1-.2-.092.344.344,0,0,1-.08-.234.394.394,0,0,1,.084-.25,1.045,1.045,0,0,1,.277-.219,3.239,3.239,0,0,1,.8-.321,3.54,3.54,0,0,1,.889-.117q1.837,0,1.836,1.956" transform="translate(61.373 3.649)" fill="#ff5800" fill-rule="evenodd"/>
      <path id="Fill-59" d="M193.256,16.244a.3.3,0,0,1-.125.261.59.59,0,0,1-.378.065l-.27-.02a1.689,1.689,0,0,1-1.184-.489,1.891,1.891,0,0,1-.382-1.294V12.209h-.674a.376.376,0,0,1-.265-.087.294.294,0,0,1-.1-.229.323.323,0,0,1,.1-.245.368.368,0,0,1,.265-.092h.674V10.406a.4.4,0,0,1,.11-.3.413.413,0,0,1,.3-.107.4.4,0,0,1,.291.107.394.394,0,0,1,.11.3v1.151h1.114a.353.353,0,0,1,.255.092.319.319,0,0,1,.1.245.291.291,0,0,1-.1.229.361.361,0,0,1-.255.087h-1.114v2.6a1.2,1.2,0,0,0,.226.81.966.966,0,0,0,.678.279l.271.02c.233.021.351.13.351.326" transform="translate(62.544 3.293)" fill="#ff5800" fill-rule="evenodd"/>
      <path id="Fill-61" d="M195.721,15.17a1.5,1.5,0,0,0,.387-1.065v-.3h-.181a8.845,8.845,0,0,0-1.345.077,1.3,1.3,0,0,0-.658.255.675.675,0,0,0-.2.525.851.851,0,0,0,.286.657,1.03,1.03,0,0,0,.718.26,1.3,1.3,0,0,0,.989-.413m1.179-2.135v2.771a.413.413,0,0,1-.105.3.374.374,0,0,1-.286.111.388.388,0,0,1-.291-.111.4.4,0,0,1-.11-.3v-.489a1.457,1.457,0,0,1-.582.678,1.7,1.7,0,0,1-.9.239,1.954,1.954,0,0,1-.868-.194,1.559,1.559,0,0,1-.627-.54,1.346,1.346,0,0,1-.23-.764,1.252,1.252,0,0,1,.28-.871,1.693,1.693,0,0,1,.924-.448,8.976,8.976,0,0,1,1.787-.138h.221v-.335a1.355,1.355,0,0,0-.246-.9,1,1,0,0,0-.8-.285,2.918,2.918,0,0,0-1.385.377.9.9,0,0,1-.38.173.254.254,0,0,1-.2-.092.339.339,0,0,1-.081-.234.4.4,0,0,1,.085-.25,1,1,0,0,1,.277-.219,3.2,3.2,0,0,1,.8-.321,3.53,3.53,0,0,1,.888-.117q1.839,0,1.837,1.956" transform="translate(63.536 3.649)" fill="#ff5800" fill-rule="evenodd"/>
      <path id="Fill-63" d="M200.393,16.342a2.912,2.912,0,0,1-1.129-1.274,4.508,4.508,0,0,1-.4-1.962,4.48,4.48,0,0,1,.4-1.95,2.907,2.907,0,0,1,1.129-1.274,3.289,3.289,0,0,1,1.736-.443,3.655,3.655,0,0,1,1.27.219,3.078,3.078,0,0,1,1.04.627.479.479,0,0,1,.161.357.409.409,0,0,1-.081.25.233.233,0,0,1-.19.107.558.558,0,0,1-.291-.112,3.776,3.776,0,0,0-.929-.571,2.616,2.616,0,0,0-.959-.162,2.176,2.176,0,0,0-1.791.769,3.371,3.371,0,0,0-.627,2.185,3.387,3.387,0,0,0,.627,2.2,2.174,2.174,0,0,0,1.791.77,2.634,2.634,0,0,0,.955-.163,3.688,3.688,0,0,0,.933-.571.556.556,0,0,1,.291-.111.236.236,0,0,1,.19.1.4.4,0,0,1,.081.254.478.478,0,0,1-.161.357,3.065,3.065,0,0,1-1.04.627,3.654,3.654,0,0,1-1.27.218,3.289,3.289,0,0,1-1.736-.442" transform="translate(65.503 3.109)" fill="#ff5800" fill-rule="evenodd"/>
      <path id="Fill-65" d="M205.079,12.129a1.881,1.881,0,0,0-.456,1.151h2.84a1.784,1.784,0,0,0-.371-1.156,1.236,1.236,0,0,0-.984-.4,1.352,1.352,0,0,0-1.029.408m2.976,2.975a.344.344,0,0,1,.08.234q0,.255-.351.469a3.094,3.094,0,0,1-1.546.428,2.367,2.367,0,0,1-1.791-.683,2.6,2.6,0,0,1-.658-1.885,3,3,0,0,1,.291-1.35,2.195,2.195,0,0,1,.818-.912,2.236,2.236,0,0,1,1.2-.326,1.927,1.927,0,0,1,1.516.632,2.481,2.481,0,0,1,.562,1.712.446.446,0,0,1-.081.3.33.33,0,0,1-.261.091H204.6q.09,1.754,1.635,1.753a1.891,1.891,0,0,0,.673-.107,4.337,4.337,0,0,0,.6-.29.95.95,0,0,1,.351-.153.246.246,0,0,1,.191.092" transform="translate(67.125 3.649)" fill="#ff5800" fill-rule="evenodd"/>
      <path id="Fill-67" d="M212.2,13.046v2.761a.407.407,0,0,1-.105.3.4.4,0,0,1-.3.107.418.418,0,0,1-.3-.107.4.4,0,0,1-.11-.3V13.1a1.55,1.55,0,0,0-.266-1.009,1.048,1.048,0,0,0-.848-.316,1.418,1.418,0,0,0-1.073.418,1.56,1.56,0,0,0-.4,1.131v2.486a.407.407,0,0,1-.105.3.4.4,0,0,1-.3.107.411.411,0,0,1-.3-.107.4.4,0,0,1-.112-.3v-4.3a.385.385,0,0,1,.412-.407.373.373,0,0,1,.286.112.4.4,0,0,1,.105.285v.52a1.657,1.657,0,0,1,.673-.7,1.993,1.993,0,0,1,.984-.239q1.757,0,1.756,1.967" transform="translate(68.508 3.649)" fill="#ff5800" fill-rule="evenodd"/>
      <path id="Fill-69" d="M215.076,16.244a.3.3,0,0,1-.126.261.585.585,0,0,1-.376.065l-.271-.02a1.688,1.688,0,0,1-1.183-.489,1.891,1.891,0,0,1-.382-1.294V12.209h-.674a.377.377,0,0,1-.265-.087.294.294,0,0,1-.1-.229.323.323,0,0,1,.1-.245.368.368,0,0,1,.265-.092h.674V10.406a.394.394,0,0,1,.11-.3.413.413,0,0,1,.3-.107.375.375,0,0,1,.4.407v1.151h1.114a.355.355,0,0,1,.255.092.318.318,0,0,1,.1.245.29.29,0,0,1-.1.229.363.363,0,0,1-.255.087h-1.114v2.6a1.2,1.2,0,0,0,.225.81.969.969,0,0,0,.679.279l.271.02c.233.021.351.13.351.326" transform="translate(69.731 3.293)" fill="#ff5800" fill-rule="evenodd"/>
      <path id="Fill-71" d="M215.915,12.129a1.874,1.874,0,0,0-.457,1.151H218.3a1.777,1.777,0,0,0-.372-1.156,1.234,1.234,0,0,0-.984-.4,1.347,1.347,0,0,0-1.028.408M218.89,15.1a.345.345,0,0,1,.081.234q0,.255-.352.469a3.006,3.006,0,0,1-.762.321,3.039,3.039,0,0,1-.783.107,2.37,2.37,0,0,1-1.792-.683,2.6,2.6,0,0,1-.658-1.885,3,3,0,0,1,.291-1.35,2.189,2.189,0,0,1,.819-.912,2.231,2.231,0,0,1,1.2-.326,1.927,1.927,0,0,1,1.516.632,2.481,2.481,0,0,1,.562,1.712.438.438,0,0,1-.081.3.328.328,0,0,1-.261.091h-3.232q.09,1.754,1.636,1.753a1.884,1.884,0,0,0,.671-.107,4.421,4.421,0,0,0,.6-.29.933.933,0,0,1,.351-.153.245.245,0,0,1,.19.092" transform="translate(70.693 3.649)" fill="#ff5800" fill-rule="evenodd"/>
      <path id="Fill-73" d="M221.662,11.442a.363.363,0,0,1-.09.26.472.472,0,0,1-.311.116l-.3.031a1.349,1.349,0,0,0-1,.485,1.582,1.582,0,0,0-.326.993V15.8a.4.4,0,0,1-.11.306.467.467,0,0,1-.588-.006.386.386,0,0,1-.114-.3V11.5a.381.381,0,0,1,.12-.3.426.426,0,0,1,.291-.107.373.373,0,0,1,.271.107.387.387,0,0,1,.11.29v.57a1.537,1.537,0,0,1,.6-.682,2,2,0,0,1,.888-.275l.141-.01c.282-.021.421.1.421.346" transform="translate(72.076 3.653)" fill="#ff5800" fill-rule="evenodd"/>
      <path id="Fill-75" d="M222.291,16.123a2.652,2.652,0,0,1-.738-.316.989.989,0,0,1-.255-.23.435.435,0,0,1-.074-.259.32.32,0,0,1,.074-.219.244.244,0,0,1,.2-.087.751.751,0,0,1,.352.154,3.247,3.247,0,0,0,.6.29,2.182,2.182,0,0,0,.736.107,1.553,1.553,0,0,0,.843-.194.625.625,0,0,0,.3-.56.567.567,0,0,0-.11-.363.925.925,0,0,0-.382-.244,5.485,5.485,0,0,0-.794-.22,2.943,2.943,0,0,1-1.264-.519,1.1,1.1,0,0,1-.382-.886,1.292,1.292,0,0,1,.241-.774,1.6,1.6,0,0,1,.667-.53,2.317,2.317,0,0,1,.968-.194,2.677,2.677,0,0,1,.758.107,2.259,2.259,0,0,1,.649.3.667.667,0,0,1,.342.509.33.33,0,0,1-.081.224.247.247,0,0,1-.19.092.746.746,0,0,1-.363-.173,3.16,3.16,0,0,0-.532-.285,1.662,1.662,0,0,0-.622-.1,1.225,1.225,0,0,0-.756.214.675.675,0,0,0-.287.57.578.578,0,0,0,.105.363.885.885,0,0,0,.351.245,4.083,4.083,0,0,0,.709.209,4.938,4.938,0,0,1,1.058.336,1.236,1.236,0,0,1,.538.448,1.286,1.286,0,0,1,.16.672,1.224,1.224,0,0,1-.532,1.034,2.31,2.31,0,0,1-1.405.392,3.375,3.375,0,0,1-.879-.112" transform="translate(72.867 3.649)" fill="#ff5800" fill-rule="evenodd"/>
      <path id="Fill-77" d="M176.011,26.389a.422.422,0,0,1-.419-.424V2.262a.418.418,0,1,1,.836,0v23.7a.421.421,0,0,1-.417.424" transform="translate(57.837 0.605)" fill="#ff5800" fill-rule="evenodd"/>
    </g>
  </g>
</svg>
